<?xml version="1.0" encoding="UTF-8"?>
<!DOCTYPE svg PUBLIC "-//W3C//DTD SVG 1.1//EN" "http://www.w3.org/Graphics/SVG/1.1/DTD/svg11.dtd">
<svg xmlns="http://www.w3.org/2000/svg" version="1.1" width="256px" height="256px" style="shape-rendering:geometricPrecision; text-rendering:geometricPrecision; image-rendering:optimizeQuality; fill-rule:evenodd; clip-rule:evenodd" xmlns:xlink="http://www.w3.org/1999/xlink">
<g id="logo-border"><path style="opacity:1" fill="#000000" d="M 117.5,-0.5 C 124.167,-0.5 130.833,-0.5 137.5,-0.5C 187.385,5.55206 223.218,31.2187 245,76.5C 250.415,90.1617 253.915,104.162 255.5,118.5C 255.5,124.833 255.5,131.167 255.5,137.5C 248.31,193.711 217.976,231.211 164.5,250C 155.482,252.447 146.482,254.28 137.5,255.5C 130.833,255.5 124.167,255.5 117.5,255.5C 61.3308,248.322 23.8308,217.989 5,164.5C 2.55338,155.482 0.720047,146.482 -0.5,137.5C -0.5,130.833 -0.5,124.167 -0.5,117.5C 5.55206,67.615 31.2187,31.7816 76.5,10C 89.8553,4.74524 103.522,1.24524 117.5,-0.5 Z"/></g>
<g><path style="opacity:1" fill="#6d0000" d="M 125.5,7.5 C 126.067,9.02951 126.733,10.5295 127.5,12C 124.705,13.7932 122.205,15.9598 120,18.5C 118.59,17.2125 117.09,16.0458 115.5,15C 111.638,15.3736 107.805,15.2069 104,14.5C 98.9286,16.406 95.4286,19.7393 93.5,24.5C 93.6667,25.8333 93.8333,27.1667 94,28.5C 94.5613,29.0219 95.228,29.3552 96,29.5C 99.7846,28.1154 102.785,25.7821 105,22.5C 108.19,24.0723 110.69,23.2389 112.5,20C 113.944,19.2195 115.277,19.3861 116.5,20.5C 117.88,22.1738 119.213,23.8404 120.5,25.5C 120.113,27.2743 119.447,28.941 118.5,30.5C 119.5,31.1667 120.5,31.8333 121.5,32.5C 121.222,36.7414 119.222,39.7414 115.5,41.5C 113.668,40.7515 112.001,39.7515 110.5,38.5C 108.395,39.8982 106.395,41.3982 104.5,43C 101.167,43.3333 97.8333,43.6667 94.5,44C 89.9991,45.9173 85.3325,47.2506 80.5,48C 76.9475,50.9438 72.9475,53.1104 68.5,54.5C 67.4386,59.2091 66.272,63.8758 65,68.5C 62.6143,64.7906 60.4476,60.9572 58.5,57C 49.9143,54.3051 42.7476,56.4718 37,63.5C 33.109,72.6233 35.9423,76.6233 45.5,75.5C 45.6567,76.8734 45.49,78.2068 45,79.5C 43.3651,80.7256 41.8651,82.059 40.5,83.5C 43.6124,86.1199 44.2791,89.2866 42.5,93C 46.6106,103.989 52.6106,105.156 60.5,96.5C 65.8878,99.8606 71.5545,102.694 77.5,105C 83.0873,108.71 88.5873,112.543 94,116.5C 96.8556,122.931 100.356,128.931 104.5,134.5C 98.5985,161.409 81.9318,175.076 54.5,175.5C 54.5,186.5 54.5,197.5 54.5,208.5C 59.1667,208.5 63.8333,208.5 68.5,208.5C 67.7878,210.928 66.7878,213.261 65.5,215.5C 66.6073,219.811 67.6073,224.144 68.5,228.5C 67.675,229.386 66.675,229.719 65.5,229.5C 63.9731,229.573 62.9731,228.906 62.5,227.5C 59.1916,224.225 56.3582,220.558 54,216.5C 53.3458,210.562 52.1791,204.729 50.5,199C 51.0993,189.02 52.0993,179.02 53.5,169C 53.0788,165.82 52.0788,162.82 50.5,160C 50.9111,158.856 51.2444,157.689 51.5,156.5C 47.5096,152.341 43.6763,148.007 40,143.5C 37.8338,137.341 37.1671,131.007 38,124.5C 40.9175,120.334 43.5841,116.001 46,111.5C 46.6667,108.833 46.6667,106.167 46,103.5C 43.708,102.21 41.708,100.543 40,98.5C 38.0247,93.0464 35.8581,87.7131 33.5,82.5C 26.1507,80.1377 23.1507,75.1377 24.5,67.5C 43.6,34.9475 71.9334,15.4475 109.5,9C 114.808,8.16972 120.141,7.66972 125.5,7.5 Z"/></g>
<g><path style="opacity:1" fill="#ae0000" d="M 125.5,7.5 C 127.167,7.5 128.833,7.5 130.5,7.5C 129.603,10.6928 128.603,13.8595 127.5,17C 127.873,22.5821 130.207,27.0821 134.5,30.5C 138.042,26.6128 141.709,22.7795 145.5,19C 147.5,18.1667 149.5,17.3333 151.5,16.5C 152.612,14.5808 153.946,12.9142 155.5,11.5C 167.952,13.6454 179.286,18.3121 189.5,25.5C 188.167,25.5 186.833,25.5 185.5,25.5C 185.234,29.6049 185.734,33.6049 187,37.5C 188.57,38.3578 190.237,39.0245 192,39.5C 193.899,42.641 196.733,43.9744 200.5,43.5C 203.812,51.5754 201.479,57.242 193.5,60.5C 194.103,55.3814 193.436,50.7147 191.5,46.5C 188.942,41.4064 184.942,38.5731 179.5,38C 180.876,40.5402 180.21,42.5402 177.5,44C 178.252,44.6708 178.586,45.5041 178.5,46.5C 149.396,47.6152 129.563,61.6152 119,88.5C 114.026,103.916 109.193,119.249 104.5,134.5C 100.356,128.931 96.8556,122.931 94,116.5C 88.5873,112.543 83.0873,108.71 77.5,105C 71.5545,102.694 65.8878,99.8606 60.5,96.5C 52.6106,105.156 46.6106,103.989 42.5,93C 44.2791,89.2866 43.6124,86.1199 40.5,83.5C 41.8651,82.059 43.3651,80.7256 45,79.5C 45.49,78.2068 45.6567,76.8734 45.5,75.5C 35.9423,76.6233 33.109,72.6233 37,63.5C 42.7476,56.4718 49.9143,54.3051 58.5,57C 60.4476,60.9572 62.6143,64.7906 65,68.5C 66.272,63.8758 67.4386,59.2091 68.5,54.5C 72.9475,53.1104 76.9475,50.9438 80.5,48C 85.3325,47.2506 89.9991,45.9173 94.5,44C 97.8333,43.6667 101.167,43.3333 104.5,43C 106.395,41.3982 108.395,39.8982 110.5,38.5C 112.001,39.7515 113.668,40.7515 115.5,41.5C 119.222,39.7414 121.222,36.7414 121.5,32.5C 120.5,31.8333 119.5,31.1667 118.5,30.5C 119.447,28.941 120.113,27.2743 120.5,25.5C 119.213,23.8404 117.88,22.1738 116.5,20.5C 115.277,19.3861 113.944,19.2195 112.5,20C 110.69,23.2389 108.19,24.0723 105,22.5C 102.785,25.7821 99.7846,28.1154 96,29.5C 95.228,29.3552 94.5613,29.0219 94,28.5C 93.8333,27.1667 93.6667,25.8333 93.5,24.5C 95.4286,19.7393 98.9286,16.406 104,14.5C 107.805,15.2069 111.638,15.3736 115.5,15C 117.09,16.0458 118.59,17.2125 120,18.5C 122.205,15.9598 124.705,13.7932 127.5,12C 126.733,10.5295 126.067,9.02951 125.5,7.5 Z"/></g>
<g><path style="opacity:1" fill="#6c0000" d="M 130.5,7.5 C 139.134,7.78299 147.467,9.11632 155.5,11.5C 153.946,12.9142 152.612,14.5808 151.5,16.5C 149.5,17.3333 147.5,18.1667 145.5,19C 141.709,22.7795 138.042,26.6128 134.5,30.5C 130.207,27.0821 127.873,22.5821 127.5,17C 128.603,13.8595 129.603,10.6928 130.5,7.5 Z"/></g>
<g><path style="opacity:1" fill="#6c0000" d="M 150.5,22.5 C 155.694,22.4158 156.694,24.4158 153.5,28.5C 149.907,30.0117 146.907,29.1783 144.5,26C 146.432,24.5415 148.432,23.3748 150.5,22.5 Z"/></g>
<g><path style="opacity:1" fill="#6c0000" d="M 189.5,25.5 C 207.482,35.9823 221.648,50.3156 232,68.5C 235.347,74.1882 237.847,80.1882 239.5,86.5C 237.366,82.5395 234.032,80.3729 229.5,80C 228.213,78.5905 227.046,77.0905 226,75.5C 225.311,76.3567 224.478,77.0233 223.5,77.5C 222.167,75.8333 220.833,74.1667 219.5,72.5C 214.742,75.7644 212.742,74.4311 213.5,68.5C 210.013,68.0946 206.68,67.0946 203.5,65.5C 202.322,68.3908 201.655,71.3908 201.5,74.5C 198.873,75.0916 196.206,75.4249 193.5,75.5C 193.5,70.5 193.5,65.5 193.5,60.5C 201.479,57.242 203.812,51.5754 200.5,43.5C 196.733,43.9744 193.899,42.641 192,39.5C 190.237,39.0245 188.57,38.3578 187,37.5C 185.734,33.6049 185.234,29.6049 185.5,25.5C 186.833,25.5 188.167,25.5 189.5,25.5 Z"/></g>
<g><path style="opacity:1" fill="#6d0000" d="M 191.5,46.5 C 187.167,46.5 182.833,46.5 178.5,46.5C 178.586,45.5041 178.252,44.6708 177.5,44C 180.21,42.5402 180.876,40.5402 179.5,38C 184.942,38.5731 188.942,41.4064 191.5,46.5 Z"/></g>
<g><path style="opacity:1" fill="#fefffe" d="M 178.5,46.5 C 182.833,46.5 187.167,46.5 191.5,46.5C 193.436,50.7147 194.103,55.3814 193.5,60.5C 193.5,65.5 193.5,70.5 193.5,75.5C 193.5,76.8333 193.5,78.1667 193.5,79.5C 192.5,79.5 191.5,79.5 190.5,79.5C 167.363,79.5554 152.363,90.5554 145.5,112.5C 152.833,112.5 160.167,112.5 167.5,112.5C 170.5,112.5 173.5,112.5 176.5,112.5C 176.5,120.833 176.5,129.167 176.5,137.5C 163.344,138.496 150.01,138.829 136.5,138.5C 132.973,155.256 126.806,170.922 118,185.5C 104.854,200.17 88.3539,207.836 68.5,208.5C 63.8333,208.5 59.1667,208.5 54.5,208.5C 54.5,197.5 54.5,186.5 54.5,175.5C 81.9318,175.076 98.5985,161.409 104.5,134.5C 109.193,119.249 114.026,103.916 119,88.5C 129.563,61.6152 149.396,47.6152 178.5,46.5 Z"/></g>
<g><path style="opacity:1" fill="#ae0000" d="M 239.5,86.5 C 239.657,87.8734 239.49,89.2068 239,90.5C 235.589,89.7069 232.089,89.2069 228.5,89C 225.01,86.0887 221.344,83.422 217.5,81C 211.419,80.6259 205.419,79.7926 199.5,78.5C 197.41,78.5726 195.41,78.906 193.5,79.5C 193.5,78.1667 193.5,76.8333 193.5,75.5C 196.206,75.4249 198.873,75.0916 201.5,74.5C 201.655,71.3908 202.322,68.3908 203.5,65.5C 206.68,67.0946 210.013,68.0946 213.5,68.5C 212.742,74.4311 214.742,75.7644 219.5,72.5C 220.833,74.1667 222.167,75.8333 223.5,77.5C 224.478,77.0233 225.311,76.3567 226,75.5C 227.046,77.0905 228.213,78.5905 229.5,80C 234.032,80.3729 237.366,82.5395 239.5,86.5 Z"/></g>
<g><path style="opacity:1" fill="#ae0000" d="M 24.5,67.5 C 23.1507,75.1377 26.1507,80.1377 33.5,82.5C 35.8581,87.7131 38.0247,93.0464 40,98.5C 41.708,100.543 43.708,102.21 46,103.5C 46.6667,106.167 46.6667,108.833 46,111.5C 43.5841,116.001 40.9175,120.334 38,124.5C 37.1671,131.007 37.8338,137.341 40,143.5C 43.6763,148.007 47.5096,152.341 51.5,156.5C 51.2444,157.689 50.9111,158.856 50.5,160C 52.0788,162.82 53.0788,165.82 53.5,169C 52.0993,179.02 51.0993,189.02 50.5,199C 52.1791,204.729 53.3458,210.562 54,216.5C 56.3582,220.558 59.1916,224.225 62.5,227.5C 34.7132,209.502 17.2132,184.169 10,151.5C 5.33629,127.143 7.66962,103.476 17,80.5C 19.0217,75.7768 21.5217,71.4434 24.5,67.5 Z"/></g>
<g><path style="opacity:1" fill="#6c0000" d="M 58.5,72.5 C 63.0366,74.4696 67.7033,76.1362 72.5,77.5C 66.6264,78.6882 60.9597,78.0216 55.5,75.5C 56.3398,74.265 57.3398,73.265 58.5,72.5 Z"/></g>
<g><path style="opacity:1" fill="#6c0000" d="M 239.5,86.5 C 256.092,138.294 244.425,182.794 204.5,220C 201.309,222.426 197.975,224.593 194.5,226.5C 196.441,219.107 199.108,211.941 202.5,205C 200.962,201.276 200.462,197.443 201,193.5C 204.768,187.626 208.268,181.626 211.5,175.5C 210.482,171.477 209.482,167.477 208.5,163.5C 208.622,160.302 209.455,157.302 211,154.5C 211.667,151.5 211.667,148.5 211,145.5C 206.815,144.808 202.482,143.808 198,142.5C 189.985,144.439 182.818,142.772 176.5,137.5C 176.5,129.167 176.5,120.833 176.5,112.5C 173.5,112.5 170.5,112.5 167.5,112.5C 169.354,107.92 170.021,103.254 169.5,98.5C 170.703,92.464 174.37,88.964 180.5,88C 182.825,83.8315 186.158,80.9982 190.5,79.5C 191.5,79.5 192.5,79.5 193.5,79.5C 195.41,78.906 197.41,78.5726 199.5,78.5C 205.419,79.7926 211.419,80.6259 217.5,81C 221.344,83.422 225.01,86.0887 228.5,89C 232.089,89.2069 235.589,89.7069 239,90.5C 239.49,89.2068 239.657,87.8734 239.5,86.5 Z"/></g>
<g><path style="opacity:1" fill="#ae0000" d="M 190.5,79.5 C 186.158,80.9982 182.825,83.8315 180.5,88C 174.37,88.964 170.703,92.464 169.5,98.5C 170.021,103.254 169.354,107.92 167.5,112.5C 160.167,112.5 152.833,112.5 145.5,112.5C 152.363,90.5554 167.363,79.5554 190.5,79.5 Z"/></g>
<g><path style="opacity:1" fill="#6c0000" d="M 74.5,81.5 C 76.0145,82.6801 77.6812,83.6801 79.5,84.5C 79.2907,85.086 78.9574,85.586 78.5,86C 75.2312,85.8435 71.8979,85.5101 68.5,85C 70.4319,83.5415 72.4319,82.3748 74.5,81.5 Z"/></g>
<g><path style="opacity:1" fill="#ae0000" d="M 176.5,137.5 C 182.818,142.772 189.985,144.439 198,142.5C 202.482,143.808 206.815,144.808 211,145.5C 211.667,148.5 211.667,151.5 211,154.5C 209.455,157.302 208.622,160.302 208.5,163.5C 209.482,167.477 210.482,171.477 211.5,175.5C 208.268,181.626 204.768,187.626 201,193.5C 200.462,197.443 200.962,201.276 202.5,205C 199.108,211.941 196.441,219.107 194.5,226.5C 158.623,249.731 120.623,253.565 80.5,238C 75.1126,235.646 70.1126,232.812 65.5,229.5C 66.675,229.719 67.675,229.386 68.5,228.5C 67.6073,224.144 66.6073,219.811 65.5,215.5C 66.7878,213.261 67.7878,210.928 68.5,208.5C 88.3539,207.836 104.854,200.17 118,185.5C 126.806,170.922 132.973,155.256 136.5,138.5C 150.01,138.829 163.344,138.496 176.5,137.5 Z"/></g>
</svg>