<?xml version="1.0" encoding="UTF-8"?>
<!DOCTYPE svg PUBLIC "-//W3C//DTD SVG 1.1//EN" "http://www.w3.org/Graphics/SVG/1.1/DTD/svg11.dtd">
<svg xmlns="http://www.w3.org/2000/svg" version="1.1" width="32px" height="32px" style="shape-rendering:geometricPrecision; text-rendering:geometricPrecision; image-rendering:optimizeQuality; fill-rule:evenodd; clip-rule:evenodd" xmlns:xlink="http://www.w3.org/1999/xlink">
<g><path style="opacity:1" fill="#000000" d="M 11.5,-0.5 C 14.1667,-0.5 16.8333,-0.5 19.5,-0.5C 25.1667,1.83333 29.1667,5.83333 31.5,11.5C 31.5,14.1667 31.5,16.8333 31.5,19.5C 29.1667,25.1667 25.1667,29.1667 19.5,31.5C 16.8333,31.5 14.1667,31.5 11.5,31.5C 5.83333,29.1667 1.83333,25.1667 -0.5,19.5C -0.5,16.8333 -0.5,14.1667 -0.5,11.5C 1.83333,5.83333 5.83333,1.83333 11.5,-0.5 Z"/></g>
<g><path style="opacity:1" fill="#a10000" d="M 26.5,7.5 C 25.5,7.5 24.5,7.5 23.5,7.5C 23.2089,6.35089 22.3756,5.68423 21,5.5C 18.8077,5.86269 16.9744,6.86269 15.5,8.5C 13.2467,5.30444 10.2467,4.30444 6.5,5.5C 11.6744,0.867327 17.3411,0.367327 23.5,4C 24.7101,5.0391 25.7101,6.20577 26.5,7.5 Z"/></g>
<g><path style="opacity:1" fill="#cf0000" d="M 15.5,8.5 C 14.7333,12.1488 13.3999,15.4822 11.5,18.5C 6.32784,17.6642 3.66118,14.6642 3.5,9.5C 3.73758,7.59565 4.73758,6.26231 6.5,5.5C 10.2467,4.30444 13.2467,5.30444 15.5,8.5 Z"/></g>
<g><path style="opacity:1" fill="#fefffe" d="M 23.5,7.5 C 21.5484,8.78475 19.8818,10.4514 18.5,12.5C 19.325,13.3857 20.325,13.719 21.5,13.5C 21.5,14.5 21.5,15.5 21.5,16.5C 20.0222,16.238 18.6888,16.5713 17.5,17.5C 16.5329,19.7901 15.1996,21.7901 13.5,23.5C 11.6208,24.3414 9.6208,24.6747 7.5,24.5C 7.43255,23.0413 7.76589,21.7079 8.5,20.5C 10.0269,20.573 11.0269,19.9063 11.5,18.5C 13.3999,15.4822 14.7333,12.1488 15.5,8.5C 16.9744,6.86269 18.8077,5.86269 21,5.5C 22.3756,5.68423 23.2089,6.35089 23.5,7.5 Z"/></g>
<g><path style="opacity:1" fill="#cc0000" d="M 23.5,7.5 C 24.5,7.5 25.5,7.5 26.5,7.5C 30.8552,14.0399 30.1885,20.0399 24.5,25.5C 22.9769,22.655 21.9769,19.655 21.5,16.5C 21.5,15.5 21.5,14.5 21.5,13.5C 20.325,13.719 19.325,13.3857 18.5,12.5C 19.8818,10.4514 21.5484,8.78475 23.5,7.5 Z"/></g>
<g><path style="opacity:1" fill="#a10000" d="M 3.5,9.5 C 3.66118,14.6642 6.32784,17.6642 11.5,18.5C 11.0269,19.9063 10.0269,20.573 8.5,20.5C 6.56475,19.8505 4.56475,19.5172 2.5,19.5C 1.09731,15.9356 1.43064,12.6022 3.5,9.5 Z"/></g>
<g><path style="opacity:1" fill="#a10000" d="M 21.5,16.5 C 21.9769,19.655 22.9769,22.655 24.5,25.5C 22.3877,27.7705 19.721,29.1039 16.5,29.5C 16.2451,27.0326 15.2451,25.0326 13.5,23.5C 15.1996,21.7901 16.5329,19.7901 17.5,17.5C 18.6888,16.5713 20.0222,16.238 21.5,16.5 Z"/></g>
<g><path style="opacity:1" fill="#d00000" d="M 2.5,19.5 C 4.56475,19.5172 6.56475,19.8505 8.5,20.5C 7.76589,21.7079 7.43255,23.0413 7.5,24.5C 9.6208,24.6747 11.6208,24.3414 13.5,23.5C 15.2451,25.0326 16.2451,27.0326 16.5,29.5C 9.30608,29.5798 4.63941,26.2464 2.5,19.5 Z"/></g>
</svg>
